Coordinates
version=1
nRows=21
nColumns=38
inDegrees=no

Units are S.I. units (second, meters, Newtons, ...)
If the header above contains a line with 'inDegrees', this indicates whether rotational values are in degrees (yes) or radians (no).

endheader
time	pelvis_tilt	pelvis_list	pelvis_rotation	pelvis_tx	pelvis_ty	pelvis_tz	hip_flexion_r	hip_adduction_r	hip_rotation_r	knee_angle_r	ankle_angle_r	subtalar_angle_r	mtp_angle_r	hip_flexion_l	hip_adduction_l	hip_rotation_l	knee_angle_l	ankle_angle_l	subtalar_angle_l	mtp_angle_l	lumbar_extension	lumbar_bending	lumbar_rotation	arm_flex_r	arm_add_r	arm_rot_r	elbow_flex_r	pro_sup_r	wrist_flex_r	wrist_dev_r	arm_flex_l	arm_add_l	arm_rot_l	elbow_flex_l	pro_sup_l	wrist_flex_l	wrist_dev_l
0	0.169551	1.31188	-1.61688	0.706985	1.21832	0.947129	0.385058	-0.146227	-0.184717	0.740307	0.157368	0	0	-0.34392	0.0660064	-0.154228	0.198551	0.140258	0	0	-0.297825	0.0318389	-0.0210628	0.339844	-0.157977	-0.503598	1.64087	0	0	0	0.465047	-0.392539	0.184786	1.6265	0	0	0
0.01	0.172851	1.3172	-1.62075	0.707158	1.2076	0.945356	0.371287	-0.142256	-0.208632	0.653975	0.161135	0	0	-0.350315	0.0657187	-0.152162	0.200095	0.149153	0	0	-0.292832	0.0291331	-0.0201365	0.339925	-0.158813	-0.505415	1.64059	0	0	0	0.467419	-0.39055	0.184602	1.62791	0	0	0
0.02	0.178719	1.32101	-1.62826	0.707034	1.19668	0.943536	0.353452	-0.13653	-0.232093	0.565693	0.162027	0	0	-0.358954	0.0657871	-0.152846	0.201275	0.157611	0	0	-0.288096	0.0248714	-0.0193068	0.339837	-0.157384	-0.507914	1.63856	0	0	0	0.469455	-0.389633	0.184466	1.62863	0	0	0
0.03	0.186743	1.32442	-1.63904	0.706639	1.18547	0.941609	0.33333	-0.128373	-0.253824	0.477947	0.161181	0	0	-0.369618	0.0664423	-0.154646	0.200458	0.165682	0	0	-0.282484	0.0192388	-0.0176926	0.339301	-0.154566	-0.511338	1.63485	0	0	0	0.4712	-0.389096	0.184762	1.62817	0	0	0
0.04	0.229566	1.35246	-1.67931	0.705166	1.17298	0.938955	0.336853	-0.121563	-0.271287	0.389785	0.15343	0	0	-0.350178	0.0684831	-0.148385	0.204993	0.170945	0	0	-0.233306	-0.00841707	-0.038305	0.331396	-0.131016	-0.513157	1.57734	0	0	0	0.455281	-0.399611	0.181209	1.62663	0	0	0
0.05	0.20377	1.33246	-1.66367	0.70531	1.16204	0.937153	0.289568	-0.104355	-0.28396	0.309133	0.154484	0	0	-0.393861	0.0677134	-0.16097	0.193878	0.182039	0	0	-0.268486	0.00812006	-0.00881298	0.336665	-0.155183	-0.513823	1.62793	0	0	0	0.47549	-0.386614	0.188245	1.62298	0	0	0
0.06	0.213861	1.33854	-1.67762	0.704537	1.14968	0.934602	0.267332	-0.0902093	-0.286056	0.229866	0.145887	0	0	-0.405076	0.0681075	-0.165039	0.189459	0.189524	0	0	-0.256439	0.00241394	-0.0057783	0.333937	-0.154414	-0.513264	1.62108	0	0	0	0.474102	-0.385569	0.187566	1.61906	0	0	0
0.07	0.226722	1.34464	-1.69413	0.703736	1.13704	0.931902	0.24748	-0.0779903	-0.283546	0.16403	0.133145	0	0	-0.415872	0.0686034	-0.169339	0.186273	0.196902	0	0	-0.242745	-0.00391255	-0.00410721	0.330905	-0.151713	-0.513472	1.61315	0	0	0	0.471247	-0.38527	0.186614	1.6149	0	0	0
0.08	0.238858	1.349	-1.70935	0.703135	1.12432	0.929219	0.231003	-0.0689979	-0.282711	0.11922	0.119843	0	0	-0.427503	0.0687585	-0.173436	0.185346	0.204262	0	0	-0.231588	-0.00888185	-0.00127427	0.328233	-0.151955	-0.512862	1.60816	0	0	0	0.469618	-0.383417	0.185937	1.60998	0	0	0
0.09	0.246576	1.35186	-1.71908	0.702818	1.11151	0.926686	0.218952	-0.0625526	-0.287804	0.0977545	0.11018	0	0	-0.439334	0.067693	-0.17681	0.18735	0.211041	0	0	-0.222047	-0.012011	6.31871e-05	0.326249	-0.152146	-0.512289	1.60353	0	0	0	0.467018	-0.380521	0.183455	1.60533	0	0	0
0.1	0.250098	1.3531	-1.72353	0.70268	1.09861	0.924349	0.211169	-0.0582065	-0.299384	0.0999375	0.105834	0	0	-0.451204	0.0654016	-0.179479	0.192588	0.21672	0	0	-0.214424	-0.0138098	-0.000346814	0.324776	-0.151923	-0.511343	1.5992	0	0	0	0.463508	-0.377794	0.180968	1.60196	0	0	0
0.11	0.241664	1.34715	-1.71573	0.702688	1.08592	0.92252	0.198798	-0.054258	-0.312633	0.119652	0.106201	0	0	-0.469777	0.0613193	-0.182878	0.200177	0.221914	0	0	-0.216587	-0.0132859	-0.00104354	0.325643	-0.153411	-0.508694	1.59787	0	0	0	0.46235	-0.374791	0.178186	1.60018	0	0	0
0.12	0.234085	1.34415	-1.70719	0.70287	1.07253	0.920793	0.189865	-0.0518015	-0.326763	0.150358	0.114233	0	0	-0.484143	0.0558355	-0.18524	0.210616	0.225436	0	0	-0.214207	-0.0119638	-0.00325531	0.323482	-0.154409	-0.505877	1.59672	0	0	0	0.45742	-0.370754	0.173104	1.59831	0	0	0
0.13	0.224606	1.34121	-1.69549	0.703122	1.05887	0.919224	0.179584	-0.0497083	-0.340824	0.181696	0.132973	0	0	-0.496442	0.048526	-0.187789	0.225257	0.228065	0	0	-0.211567	-0.00984782	-0.00699894	0.320501	-0.154303	-0.504071	1.59616	0	0	0	0.45099	-0.366881	0.166988	1.5969	0	0	0
0.14	0.254934	1.36207	-1.71717	0.70232	1.04426	0.917531	0.191787	-0.0504828	-0.352201	0.199435	0.151388	0	0	-0.474741	0.0405324	-0.180752	0.251592	0.226079	0	0	-0.165842	-0.03134	-0.0335414	0.308786	-0.129094	-0.507117	1.5446	0	0	0	0.427531	-0.373796	0.156391	1.59457	0	0	0
0.15	0.236325	1.3626	-1.69682	0.70199	1.03035	0.91623	0.179373	-0.0421666	-0.35345	0.200239	0.159248	0	0	-0.47698	0.0282327	-0.187676	0.278645	0.226638	0	0	-0.15977	-0.0274527	-0.0367348	0.305875	-0.127843	-0.506972	1.54034	0	0	0	0.418685	-0.370343	0.149463	1.59286	0	0	0
0.16	0.164312	1.33644	-1.63191	0.702116	1.01729	0.915769	0.134303	-0.0224667	-0.34099	0.18237	0.138676	0	0	-0.510378	0.010502	-0.213031	0.30583	0.228126	0	0	-0.200988	0.00465651	-0.01291	0.310628	-0.151657	-0.504293	1.59228	0	0	0	0.42818	-0.354519	0.146626	1.59013	0	0	0
0.17	0.168308	1.3587	-1.6329	0.699988	1.00271	0.915124	0.138819	-0.0119231	-0.324229	0.153925	0.0828587	0	0	-0.474428	-0.00549132	-0.22017	0.356011	0.216121	0	0	-0.156077	-0.0132587	-0.033369	0.2993	-0.128271	-0.505731	1.53945	0	0	0	0.403674	-0.360751	0.134608	1.5865	0	0	0
0.18	0.100684	1.32957	-1.576	0.699611	0.989646	0.915481	0.0981357	0.00476085	-0.318992	0.153309	0.0587854	0	0	-0.500652	-0.026714	-0.252282	0.400018	0.205816	0	0	-0.200426	0.0199519	-0.00602121	0.304958	-0.15265	-0.50169	1.59096	0	0	0	0.412847	-0.345726	0.132457	1.58321	0	0	0
0.19	0.0686513	1.32084	-1.54928	0.698291	0.975893	0.91621	0.0839919	0.0142851	-0.315231	0.17008	0.0520135	0	0	-0.493472	-0.0481781	-0.272599	0.458976	0.180967	0	0	-0.206222	0.0283875	-0.000113699	0.302002	-0.155482	-0.498878	1.59416	0	0	0	0.407667	-0.341434	0.128807	1.57948	0	0	0
0.2	0.0383175	1.31283	-1.52432	0.697064	0.962219	0.917173	0.0760461	0.0205977	-0.318049	0.20168	0.053409	0	0	-0.478328	-0.071696	-0.289851	0.527519	0.142592	0	0	-0.211094	0.0369692	0.00561136	0.299999	-0.15805	-0.496776	1.59422	0	0	0	0.401869	-0.337682	0.12645	1.57621	0	0	0
